# xmcd
#
# Track frame offsets:
#	150
#	12402
#	24087
#	43237
#	61060
#	74775
#	88202
#	100955
#	120215
#	132285
#
# Disc length: 1980
#
# Revision: 3
# Processed by: cddbd v1.5.1PL0 Copyright (c) Steve Scherf et al.
# Submitted via: dBpowerAMP V4.0
# Normalized: r2:TSWAP
#
DISCID=8307ba0a
DTITLE=Various Artist - All Time Country Classics - Volume 1
DYEAR=1993
DGENRE=Country
TTITLE0=Glen Campbell - By The Time I Get to Phoenix
TTITLE1=Sonny James - Bright Lights, Big City
TTITLE2=Bobbie Gentry - Ode to Billie Joe
TTITLE3=Gene Watson - Paper Rosie
TTITLE4=Billie Jo Spears - Mr. Walker It's All Over
TTITLE5=Glen Campbell - Gentle On My Mind
TTITLE6=Sonny James - Running Bear
TTITLE7=Bobbie Gentry - Fancy
TTITLE8=Gene Watson - Raisin' Cane in Texas
TTITLE9=Billie Jo Spears - Blanket on the Ground
EXTD=
EXTT0=
EXTT1=
EXTT2=
EXTT3=
EXTT4=
EXTT5=
EXTT6=
EXTT7=
EXTT8=
EXTT9=
PLAYORDER=
